<svg width="258" height="116" viewBox="0 0 258 116" fill="none" xmlns="http://www.w3.org/2000/svg">
<g filter="url(#filter0_d)">
<rect x="4" width="250" height="108" fill="black"/>
</g>
<g filter="url(#filter1_d)">
<path d="M90.4275 43.064H94.0395V60.032H103.363V63H90.4275V43.064ZM112.173 63.224C110.736 63.224 109.467 62.9253 108.365 62.328C107.283 61.7307 106.443 60.8813 105.845 59.78C105.267 58.66 104.977 57.3533 104.977 55.86C104.977 54.3667 105.267 53.0693 105.845 51.968C106.443 50.848 107.283 49.9893 108.365 49.392C109.467 48.7947 110.736 48.496 112.173 48.496C113.592 48.496 114.843 48.7947 115.925 49.392C117.008 49.9893 117.839 50.848 118.417 51.968C119.015 53.0693 119.313 54.3667 119.313 55.86C119.313 57.3533 119.015 58.66 118.417 59.78C117.839 60.8813 117.008 61.7307 115.925 62.328C114.843 62.9253 113.592 63.224 112.173 63.224ZM112.145 60.48C113.34 60.48 114.245 60.0973 114.861 59.332C115.496 58.548 115.813 57.3907 115.813 55.86C115.813 54.348 115.496 53.2 114.861 52.416C114.227 51.6133 113.331 51.212 112.173 51.212C110.997 51.212 110.092 51.6133 109.457 52.416C108.823 53.2 108.505 54.348 108.505 55.86C108.505 57.3907 108.813 58.548 109.429 59.332C110.064 60.0973 110.969 60.48 112.145 60.48ZM135.996 48.86V62.552C135.996 64.7547 135.389 66.4253 134.176 67.564C132.962 68.7027 131.18 69.272 128.828 69.272C126.644 69.272 124.721 68.8147 123.06 67.9L123.62 65.24C125.337 66.136 127.045 66.584 128.744 66.584C131.264 66.584 132.524 65.3333 132.524 62.832V60.032C132.094 60.7973 131.469 61.4227 130.648 61.908C129.826 62.3747 128.902 62.608 127.876 62.608C126.644 62.608 125.542 62.3187 124.572 61.74C123.62 61.1427 122.873 60.312 122.332 59.248C121.809 58.1653 121.548 56.9333 121.548 55.552C121.548 54.1707 121.809 52.948 122.332 51.884C122.873 50.8013 123.62 49.9707 124.572 49.392C125.542 48.7947 126.644 48.496 127.876 48.496C128.921 48.496 129.845 48.72 130.648 49.168C131.469 49.5973 132.094 50.204 132.524 50.988V48.86H135.996ZM128.8 59.864C129.957 59.864 130.862 59.4813 131.516 58.716C132.188 57.9507 132.524 56.896 132.524 55.552C132.524 54.208 132.197 53.1533 131.544 52.388C130.89 51.6227 129.976 51.24 128.8 51.24C127.642 51.24 126.728 51.6227 126.056 52.388C125.402 53.1533 125.076 54.208 125.076 55.552C125.076 56.896 125.402 57.9507 126.056 58.716C126.728 59.4813 127.642 59.864 128.8 59.864ZM147.461 48.86H150.933V63H147.461V48.86ZM151.129 42.448V45.892H147.237V42.448H151.129ZM162.853 48.496C166.232 48.496 167.921 50.4373 167.921 54.32V63H164.421V54.488C164.421 53.368 164.207 52.556 163.777 52.052C163.348 51.5293 162.685 51.268 161.789 51.268C160.725 51.268 159.867 51.6133 159.213 52.304C158.56 52.976 158.233 53.872 158.233 54.992V63H154.761V52.864C154.761 51.3707 154.687 50.036 154.537 48.86H157.813L158.065 51.184C158.551 50.3253 159.204 49.6627 160.025 49.196C160.865 48.7293 161.808 48.496 162.853 48.496Z" fill="white"/>
</g>
<defs>
<filter id="filter0_d" x="0" y="0" width="258" height="116" filterUnits="userSpaceOnUse" color-interpolation-filters="sRGB">
<feFlood flood-opacity="0" result="BackgroundImageFix"/>
<feColorMatrix in="SourceAlpha" type="matrix" values="0 0 0 0 0 0 0 0 0 0 0 0 0 0 0 0 0 0 127 0"/>
<feOffset dy="4"/>
<feGaussianBlur stdDeviation="2"/>
<feColorMatrix type="matrix" values="0 0 0 0 0 0 0 0 0 0 0 0 0 0 0 0 0 0 0.25 0"/>
<feBlend mode="normal" in2="BackgroundImageFix" result="effect1_dropShadow"/>
<feBlend mode="normal" in="SourceGraphic" in2="effect1_dropShadow" result="shape"/>
</filter>
<filter id="filter1_d" x="86.4277" y="42.448" width="85.4939" height="34.824" filterUnits="userSpaceOnUse" color-interpolation-filters="sRGB">
<feFlood flood-opacity="0" result="BackgroundImageFix"/>
<feColorMatrix in="SourceAlpha" type="matrix" values="0 0 0 0 0 0 0 0 0 0 0 0 0 0 0 0 0 0 127 0"/>
<feOffset dy="4"/>
<feGaussianBlur stdDeviation="2"/>
<feColorMatrix type="matrix" values="0 0 0 0 0 0 0 0 0 0 0 0 0 0 0 0 0 0 0.25 0"/>
<feBlend mode="normal" in2="BackgroundImageFix" result="effect1_dropShadow"/>
<feBlend mode="normal" in="SourceGraphic" in2="effect1_dropShadow" result="shape"/>
</filter>
</defs>
</svg>
