<svg width="258" height="116" viewBox="0 0 258 116" fill="none" xmlns="http://www.w3.org/2000/svg">
<g filter="url(#filter0_d)">
<rect x="4" width="250" height="108" fill="black"/>
</g>
<g filter="url(#filter1_d)">
<path d="M90.3259 63.252C88.7952 63.252 87.3579 63.0467 86.0139 62.636C84.6885 62.2253 83.5592 61.6373 82.6259 60.872L83.8579 58.24C84.8285 58.968 85.8365 59.5093 86.8819 59.864C87.9459 60.2 89.1032 60.368 90.3539 60.368C91.7352 60.368 92.7992 60.1253 93.5459 59.64C94.3112 59.1547 94.6939 58.4733 94.6939 57.596C94.6939 56.8493 94.3392 56.28 93.6299 55.888C92.9392 55.4773 91.7912 55.0947 90.1859 54.74C87.6845 54.1987 85.8645 53.4987 84.7259 52.64C83.5872 51.7813 83.0179 50.5307 83.0179 48.888C83.0179 47.712 83.3352 46.6667 83.9699 45.752C84.6045 44.8373 85.5005 44.1187 86.6579 43.596C87.8339 43.0733 89.1872 42.812 90.7179 42.812C92.1179 42.812 93.4432 43.0267 94.6939 43.456C95.9632 43.8667 96.9992 44.4453 97.8019 45.192L96.5979 47.824C94.8245 46.4053 92.8645 45.696 90.7179 45.696C89.4299 45.696 88.4125 45.9667 87.6659 46.508C86.9192 47.0307 86.5459 47.7493 86.5459 48.664C86.5459 49.448 86.8725 50.0453 87.5259 50.456C88.1979 50.8667 89.3365 51.2493 90.9419 51.604C92.6032 51.996 93.9565 52.4253 95.0019 52.892C96.0472 53.34 96.8499 53.928 97.4099 54.656C97.9699 55.3653 98.2499 56.2613 98.2499 57.344C98.2499 58.5387 97.9325 59.584 97.2979 60.48C96.6632 61.3573 95.7485 62.0387 94.5539 62.524C93.3592 63.0093 91.9499 63.252 90.3259 63.252ZM114.225 48.86V63H110.809V60.816C110.361 61.6 109.764 62.1973 109.017 62.608C108.271 63.0187 107.412 63.224 106.441 63.224C102.988 63.224 101.261 61.2827 101.261 57.4V48.86H104.733V57.428C104.733 58.4547 104.939 59.2107 105.349 59.696C105.779 60.1813 106.432 60.424 107.309 60.424C108.336 60.424 109.157 60.088 109.773 59.416C110.389 58.744 110.697 57.848 110.697 56.728V48.86H114.225ZM126.089 48.496C127.321 48.496 128.404 48.804 129.337 49.42C130.289 50.0173 131.026 50.8667 131.549 51.968C132.072 53.0693 132.333 54.348 132.333 55.804C132.333 57.26 132.062 58.5573 131.521 59.696C130.998 60.816 130.261 61.684 129.309 62.3C128.376 62.916 127.302 63.224 126.089 63.224C125.044 63.224 124.11 63 123.289 62.552C122.486 62.104 121.88 61.4787 121.469 60.676V63H118.025V42.392H121.497V50.988C121.926 50.204 122.542 49.5973 123.345 49.168C124.148 48.72 125.062 48.496 126.089 48.496ZM125.165 60.48C126.322 60.48 127.218 60.0693 127.853 59.248C128.488 58.4267 128.805 57.2787 128.805 55.804C128.805 54.348 128.488 53.228 127.853 52.444C127.218 51.6413 126.313 51.24 125.137 51.24C123.961 51.24 123.056 51.6413 122.421 52.444C121.786 53.2467 121.469 54.3853 121.469 55.86C121.469 57.3533 121.786 58.5013 122.421 59.304C123.056 60.088 123.97 60.48 125.165 60.48ZM152.076 48.496C153.682 48.496 154.876 48.9813 155.66 49.952C156.444 50.904 156.836 52.36 156.836 54.32V63H153.336V54.432C153.336 53.312 153.15 52.5093 152.776 52.024C152.422 51.52 151.824 51.268 150.984 51.268C150.014 51.268 149.248 51.6133 148.688 52.304C148.147 52.976 147.876 53.9093 147.876 55.104V63H144.376V54.432C144.376 53.3307 144.18 52.528 143.788 52.024C143.415 51.52 142.818 51.268 141.996 51.268C141.026 51.268 140.26 51.6133 139.7 52.304C139.14 52.976 138.86 53.9093 138.86 55.104V63H135.388V52.864C135.388 51.3707 135.314 50.036 135.164 48.86H138.44L138.692 51.1C139.103 50.26 139.691 49.616 140.456 49.168C141.24 48.72 142.136 48.496 143.144 48.496C145.31 48.496 146.719 49.392 147.372 51.184C147.82 50.344 148.455 49.6907 149.276 49.224C150.116 48.7387 151.05 48.496 152.076 48.496ZM160.572 48.86H164.044V63H160.572V48.86ZM164.24 42.448V45.892H160.348V42.448H164.24ZM172.325 51.492V57.82C172.325 59.4813 173.099 60.312 174.649 60.312C175.078 60.312 175.545 60.2373 176.049 60.088V62.86C175.433 63.084 174.686 63.196 173.809 63.196C172.203 63.196 170.971 62.748 170.113 61.852C169.254 60.956 168.825 59.668 168.825 57.988V51.492H166.109V48.86H168.825V45.416L172.325 44.24V48.86H176.077V51.492H172.325Z" fill="white"/>
</g>
<defs>
<filter id="filter0_d" x="0" y="0" width="258" height="116" filterUnits="userSpaceOnUse" color-interpolation-filters="sRGB">
<feFlood flood-opacity="0" result="BackgroundImageFix"/>
<feColorMatrix in="SourceAlpha" type="matrix" values="0 0 0 0 0 0 0 0 0 0 0 0 0 0 0 0 0 0 127 0"/>
<feOffset dy="4"/>
<feGaussianBlur stdDeviation="2"/>
<feColorMatrix type="matrix" values="0 0 0 0 0 0 0 0 0 0 0 0 0 0 0 0 0 0 0.25 0"/>
<feBlend mode="normal" in2="BackgroundImageFix" result="effect1_dropShadow"/>
<feBlend mode="normal" in="SourceGraphic" in2="effect1_dropShadow" result="shape"/>
</filter>
<filter id="filter1_d" x="78.626" y="42.3921" width="101.451" height="28.86" filterUnits="userSpaceOnUse" color-interpolation-filters="sRGB">
<feFlood flood-opacity="0" result="BackgroundImageFix"/>
<feColorMatrix in="SourceAlpha" type="matrix" values="0 0 0 0 0 0 0 0 0 0 0 0 0 0 0 0 0 0 127 0"/>
<feOffset dy="4"/>
<feGaussianBlur stdDeviation="2"/>
<feColorMatrix type="matrix" values="0 0 0 0 0 0 0 0 0 0 0 0 0 0 0 0 0 0 0.25 0"/>
<feBlend mode="normal" in2="BackgroundImageFix" result="effect1_dropShadow"/>
<feBlend mode="normal" in="SourceGraphic" in2="effect1_dropShadow" result="shape"/>
</filter>
</defs>
</svg>
